PathFileType	4	(X/Y/Z)	\\Move.snu.ac.kr\motion\Animal\091204_091205_Bird\091205_bird\Project 2\Capture day 2\Session 1\pigeon_007_new_after_delete_unlabel.trc
DataRate	CameraRate	NumFrames	NumMarkers	Units	OrigDataRate	OrigDataStartFrame	OrigNumFrames
240.0	240.0	18	14	mm	240.0	292	5319
Frame#	Time	14MarkersBird:Head			14MarkersBird:C_back			14MarkersBird:Spine			14MarkersBird:L-shoulder			14MarkersBird:L-elbow			14MarkersBird:L-wrist			14MarkersBird:L-hand			14MarkersBird:R-shoulder			14MarkersBird:R-elbow			14MarkersBird:R-Wrist			14MarkersBird:R-hand			14MarkersBird:C_Tail			14MarkersBird:L-Tale			14MarkersBird:R-Tale			
		X1	Y1	Z1	X2	Y2	Z2	X3	Y3	Z3	X4	Y4	Z4	X5	Y5	Z5	X6	Y6	Z6	X7	Y7	Z7	X8	Y8	Z8	X9	Y9	Z9	X10	Y10	Z10	X11	Y11	Z11	X12	Y12	Z12	X13	Y13	Z13	X14	Y14	Z14	

2846	11.854	1804.89661	657.51062	-1258.35071	1748.21362	653.52985	-1267.35852	1694.69629	650.95209	-1269.11609	1776.59595	643.07928	-1286.32495	1746.77710	673.30371	-1287.59009	1765.58862	705.27631	-1313.15198	1758.93079	723.87982	-1320.12012	1772.96533	649.76019	-1242.28918	1753.10205	674.96954	-1252.71680	1772.32935	701.90186	-1222.07605	1748.73120	742.25146	-1213.00769	1584.01978	593.19397	-1284.72021	1664.75806	609.90723	-1361.36475	1640.73047	634.43573	-1171.69995	
2847	11.858	1827.65381	654.36591	-1256.81592	1770.88074	651.13690	-1265.92651	1717.35486	648.16205	-1267.36987	1799.64050	640.35645	-1284.82056	1769.68054	670.82758	-1290.32666	1789.34924	699.33472	-1319.39905	1786.17993	719.87854	-1326.08057	1796.05725	646.91718	-1239.67590	1776.88318	673.18732	-1246.99597	1795.43164	695.65515	-1213.83569	1773.63953	739.01422	-1202.66431	1606.67200	591.16760	-1284.12390	1688.55127	608.83704	-1360.14197	1664.24426	630.64313	-1169.38818	
2848	11.863	1850.52917	651.27484	-1255.27917	1793.54395	648.87921	-1264.49866	1739.96570	645.59314	-1265.61401	1822.76453	637.98853	-1283.27417	1793.65845	667.53101	-1293.10278	1813.91833	690.68951	-1326.25452	1813.35645	711.81775	-1335.50671	1819.14819	644.22174	-1237.34094	1799.53809	671.00568	-1240.34314	1818.52026	686.94672	-1203.82056	1798.40918	731.06470	-1188.30798	1629.56384	588.67761	-1282.68359	1711.65283	607.16095	-1358.55896	1687.26196	626.40753	-1167.40906	
2849	11.867	1873.41711	648.36584	-1253.62390	1816.23022	646.77692	-1263.05518	1762.56787	643.32904	-1263.85950	1846.09778	635.97809	-1281.81165	1819.34387	663.41766	-1293.92786	1839.41626	679.52386	-1332.33936	1840.45886	699.82251	-1345.62561	1842.27039	641.55121	-1235.13501	1821.34937	667.85449	-1233.44812	1842.18396	675.97852	-1193.59351	1823.64954	718.74353	-1172.47583	1652.57861	586.05762	-1280.61011	1734.29346	604.77783	-1356.70300	1710.01221	621.70587	-1165.70105	
2850	11.871	1896.35266	645.66943	-1251.88306	1838.96716	644.84998	-1261.57629	1785.20056	641.45331	-1262.11731	1869.66663	634.22302	-1280.47290	1844.96387	658.14771	-1297.50708	1865.94165	666.39563	-1336.33020	1867.80847	684.52448	-1354.16357	1865.43347	638.74902	-1232.88062	1843.24634	663.48810	-1226.73389	1866.95740	663.02283	-1184.66577	1849.98816	702.44287	-1157.33508	1675.67285	583.48010	-1278.10156	1756.67493	601.74713	-1354.67615	1732.73340	616.67291	-1164.26978	
2851	11.875	1919.38550	643.16730	-1250.04138	1861.78174	643.11841	-1260.04211	1807.90271	640.04956	-1260.39844	1893.30359	632.50671	-1279.06909	1869.97583	651.12885	-1300.35376	1894.12573	653.19183	-1337.27661	1895.72607	666.87866	-1359.82898	1888.63428	635.83466	-1230.55811	1866.05591	657.99664	-1220.32690	1892.95264	648.42957	-1178.24622	1877.79968	682.95459	-1144.72083	1698.88452	580.95319	-1275.33374	1778.90625	598.32452	-1352.53979	1755.54858	611.57135	-1163.15430	
2852	11.879	1942.53125	640.81158	-1248.09436	1884.70129	641.60223	-1258.43274	1830.71350	639.20154	-1258.71387	1916.69690	630.65594	-1277.39221	1895.53662	643.84790	-1301.55396	1921.40857	639.18445	-1337.56543	1924.26965	647.79858	-1361.99524	1911.73389	632.68073	-1228.07776	1890.03601	651.73889	-1214.30286	1919.79834	632.84003	-1175.09167	1907.00513	661.43292	-1135.96326	1722.32922	578.37592	-1272.47717	1800.98743	594.84430	-1350.28357	1778.42139	606.74280	-1162.33716	
2853	11.883	1965.79456	638.65302	-1246.08740	1907.75305	640.32159	-1256.72839	1853.60132	638.85950	-1257.05493	1939.73230	628.68103	-1275.41870	1921.47241	637.41290	-1299.74731	1946.87183	622.94543	-1333.83801	1953.16992	628.11847	-1360.25146	1935.10242	629.80054	-1225.79871	1914.96753	645.12354	-1208.91785	1946.85864	617.29993	-1175.40784	1937.02600	639.05450	-1131.73645	1746.15942	575.62286	-1269.70398	1822.95898	591.57867	-1347.83948	1801.30627	602.50897	-1161.69800	
2854	11.887	1989.13196	636.78705	-1244.08936	1930.96436	639.29639	-1254.90906	1876.94531	638.77954	-1255.60779	1962.66504	626.72223	-1273.30139	1946.54370	630.44891	-1299.67932	1973.58655	611.31653	-1326.63123	1981.87073	608.78137	-1354.34949	1958.71118	628.22412	-1224.21082	1940.41467	638.47656	-1204.52344	1973.61792	603.14996	-1178.79883	1967.01624	616.87622	-1132.10583	1770.45154	572.68762	-1267.14368	1844.87329	588.62976	-1345.19092	1824.18811	599.08783	-1161.07715	
2855	11.892	2012.56494	635.17004	-1242.12683	1954.28162	638.49170	-1253.01392	1900.66223	638.74670	-1254.01746	1985.81140	624.94507	-1271.23303	1971.23608	623.99799	-1298.37073	1999.42065	599.99292	-1319.47168	2009.68298	590.94629	-1344.47888	1982.57715	626.69928	-1222.55347	1965.85144	632.05731	-1201.36145	1999.84229	591.72742	-1184.31262	1996.35913	596.15381	-1136.78003	1795.10669	569.74823	-1264.85388	1866.75305	586.01605	-1342.45410	1846.96997	596.55353	-1160.42249	
2856	11.896	2036.12183	633.68372	-1240.18152	1978.24255	638.15448	-1251.58191	1924.34009	638.49506	-1252.46777	2009.26758	623.46454	-1269.33362	1994.31873	619.04706	-1295.78113	2024.59766	591.11609	-1311.15210	2036.08850	575.95215	-1331.52856	2006.40710	625.25745	-1220.78772	1990.72998	626.19067	-1199.32410	2025.48877	584.01855	-1190.58020	2024.77148	578.33801	-1145.00488	1819.80737	567.16260	-1262.80286	1888.64783	583.74164	-1339.80603	1869.54993	594.78680	-1159.75659	
2857	11.900	2059.84937	632.18182	-1238.24841	2002.05957	637.43945	-1249.91797	1948.14783	637.96173	-1250.91492	2032.97986	622.25323	-1267.58948	2017.38855	614.47961	-1293.44751	2049.19360	585.22522	-1302.70667	2060.96582	564.96643	-1317.05640	2030.23523	623.87939	-1218.97864	2014.74292	621.24121	-1198.04675	2050.47656	580.37573	-1196.03027	2052.18799	564.70532	-1155.29504	1844.14880	565.41071	-1260.95374	1910.69189	581.80914	-1337.37024	1891.93372	593.48468	-1159.08240	
2858	11.904	2083.75757	630.54260	-1236.33887	2026.00562	636.64484	-1248.19019	1972.06946	637.05457	-1249.34448	2056.85791	621.21271	-1265.96582	2039.75024	611.08759	-1290.93713	2073.30249	582.41113	-1295.17053	2084.55444	558.57111	-1303.06860	2054.09570	622.54602	-1217.19092	2037.94116	617.54034	-1197.10486	2074.58032	580.39960	-1199.23364	2078.57275	555.93744	-1165.52686	1867.84741	564.87280	-1259.33008	1932.99609	580.12567	-1335.14636	1914.19641	592.24310	-1158.44897	
2859	11.908	2107.78784	628.69733	-1234.47119	2050.14038	635.55121	-1246.37683	1996.11633	635.76563	-1247.71973	2080.86206	620.16223	-1264.38733	2061.48975	609.00024	-1288.53845	2096.86914	582.19714	-1289.33862	2107.18921	556.42700	-1291.55017	2078.02271	621.23810	-1215.48950	2060.58447	615.29370	-1196.09277	2097.53833	583.15106	-1199.37561	2103.77002	551.89069	-1173.54114	1890.91846	565.53961	-1258.02271	1955.59998	578.46240	-1332.99658	1936.42480	590.66876	-1157.97900	
2860	11.913	2131.84790	626.63562	-1232.64148	2074.52417	634.07104	-1244.54321	2020.33398	634.17450	-1246.04248	2104.93066	618.86523	-1262.72754	2082.85474	608.35022	-1286.44580	2119.85767	583.89642	-1285.79736	2129.08154	557.37970	-1284.05859	2102.05029	619.93652	-1213.93933	2082.88428	614.59515	-1194.71167	2119.33911	587.72595	-1196.52173	2127.41797	551.64465	-1177.84778	1913.70032	566.91803	-1257.10254	1978.41394	576.64697	-1330.79260	1958.68408	588.54285	-1157.80420	
2861	11.917	2155.91675	624.42444	-1230.82141	2099.13208	632.11438	-1242.69800	2044.76563	632.38586	-1244.33203	2129.03418	617.18744	-1260.91187	2104.22534	609.15558	-1284.63440	2142.43359	586.96991	-1284.86975	2150.16943	560.09070	-1281.39746	2126.21265	618.62213	-1212.60510	2104.88794	615.37805	-1193.06348	2142.49634	592.35626	-1192.39478	2149.11157	554.10730	-1178.04907	1936.65015	568.17877	-1256.51978	2001.31897	574.83862	-1328.55664	1981.08643	585.94086	-1157.96484	
2862	11.921	2180.11694	622.07672	-1228.96106	2123.86255	629.62085	-1240.78064	2069.38940	630.45435	-1242.59045	2153.19800	615.16229	-1258.97925	2126.00317	611.15393	-1282.76563	2164.82568	591.01898	-1286.21375	2170.04688	563.73749	-1283.40894	2150.54419	617.27576	-1211.55176	2126.66479	617.36353	-1191.69751	2163.71460	595.92487	-1186.63477	2168.56226	558.65082	-1174.60742	1960.07642	568.52087	-1256.09314	2024.31775	573.54761	-1326.52539	2003.81775	583.18738	-1158.31409	
2863	11.925	2204.52100	619.53558	-1227.07874	2148.67114	626.93109	-1238.85815	2094.11865	628.36340	-1240.80371	2177.43091	612.84460	-1256.96167	2147.67822	613.88428	-1281.29126	2187.18872	595.90704	-1288.87964	2188.13892	568.42590	-1288.91284	2175.07861	615.87830	-1210.84412	2148.56738	620.09656	-1191.32349	2186.40259	602.13977	-1180.33728	2185.71484	565.34320	-1168.43909	1984.06409	567.55145	-1255.64160	2047.64563	573.27112	-1325.02832	2027.03760	580.68604	-1158.50720	
